<?xml version="1.0" encoding="UTF-8" standalone="no"?>
<!-- Created with Inkscape (http://www.inkscape.org/) -->

<svg
   version="1.1"
   id="svg1"
   width="206.66667"
   height="80"
   viewBox="0 0 206.66667 80"
   sodipodi:docname="Get_it_On_Zap_Store.svg"
   inkscape:version="1.4 (e7c3feb, 2024-10-09)"
   xml:space="preserve"
   xmlns:inkscape="http://www.inkscape.org/namespaces/inkscape"
   xmlns:sodipodi="http://sodipodi.sourceforge.net/DTD/sodipodi-0.dtd"
   xmlns:xlink="http://www.w3.org/1999/xlink"
   xmlns="http://www.w3.org/2000/svg"
   xmlns:svg="http://www.w3.org/2000/svg"><sodipodi:namedview
     id="namedview1"
     pagecolor="#ffffff"
     bordercolor="#000000"
     borderopacity="0.25"
     inkscape:showpageshadow="2"
     inkscape:pageopacity="0.0"
     inkscape:pagecheckerboard="0"
     inkscape:deskcolor="#d1d1d1"
     inkscape:zoom="1.8101934"
     inkscape:cx="93.912617"
     inkscape:cy="34.250484"
     inkscape:window-width="1366"
     inkscape:window-height="761"
     inkscape:window-x="0"
     inkscape:window-y="0"
     inkscape:window-maximized="1"
     inkscape:current-layer="layer-MC0"
     showguides="true"><inkscape:page
       x="0"
       y="0"
       inkscape:label="1"
       id="page1"
       width="206.66667"
       height="80"
       margin="0"
       bleed="0" /></sodipodi:namedview><defs
     id="defs1"><linearGradient
       id="swatch43"
       inkscape:swatch="solid"><stop
         style="stop-color:#ffffff;stop-opacity:1;"
         offset="0"
         id="stop43" /></linearGradient><linearGradient
       id="swatch41"
       inkscape:swatch="solid"><stop
         style="stop-color:#ffffff;stop-opacity:1;"
         offset="0"
         id="stop41" /></linearGradient><linearGradient
       id="linearGradient35"
       inkscape:swatch="gradient"><stop
         style="stop-color:#000000;stop-opacity:1;"
         offset="0"
         id="stop35" /><stop
         style="stop-color:#000000;stop-opacity:0;"
         offset="1"
         id="stop36" /></linearGradient><clipPath
       clipPathUnits="userSpaceOnUse"
       id="clipPath1"><path
         d="M 0,60 H 155 V 0 H 0 Z"
         id="path1" /></clipPath><clipPath
       clipPathUnits="userSpaceOnUse"
       id="clipPath3"><path
         d="M 0,60 H 155 V 0 H 0 Z"
         transform="matrix(1.3333333,0,0,-1.3333333,0,80)"
         id="path3" /></clipPath><clipPath
       clipPathUnits="userSpaceOnUse"
       id="clipPath5"><path
         d="M 0,60 H 155 V 0 H 0 Z"
         transform="translate(-140.0001,-10.000101)"
         id="path5" /></clipPath><clipPath
       clipPathUnits="userSpaceOnUse"
       id="clipPath7"><path
         d="M 0,60 H 155 V 0 H 0 Z"
         transform="translate(-140.0001,-49.999901)"
         id="path7" /></clipPath><clipPath
       clipPathUnits="userSpaceOnUse"
       id="clipPath9"><path
         d="M 0,60 H 155 V 0 H 0 Z"
         transform="translate(-57.418501,-39.756801)"
         id="path9" /></clipPath><clipPath
       clipPathUnits="userSpaceOnUse"
       id="clipPath11"><path
         d="M 0,60 H 155 V 0 H 0 Z"
         transform="translate(-62.027801,-42.262701)"
         id="path11" /></clipPath><clipPath
       clipPathUnits="userSpaceOnUse"
       id="clipPath13"><path
         d="M 0,60 H 155 V 0 H 0 Z"
         transform="translate(-65.278802,-37.000001)"
         id="path13" /></clipPath><clipPath
       clipPathUnits="userSpaceOnUse"
       id="clipPath15"><path
         d="M 0,60 H 155 V 0 H 0 Z"
         id="path15" /></clipPath><clipPath
       clipPathUnits="userSpaceOnUse"
       id="clipPath17"><path
         d="M 0,60 H 155 V 0 H 0 Z"
         transform="translate(-74.128402,-37.000001)"
         id="path17" /></clipPath><clipPath
       clipPathUnits="userSpaceOnUse"
       id="clipPath19"><path
         d="M 0,60 H 155 V 0 H 0 Z"
         transform="translate(-79.779302,-38.277801)"
         id="path19" /></clipPath><clipPath
       clipPathUnits="userSpaceOnUse"
       id="clipPath21"><path
         d="M 0,60 H 155 V 0 H 0 Z"
         transform="translate(-79.779302,-38.277801)"
         id="path21" /></clipPath><clipPath
       clipPathUnits="userSpaceOnUse"
       id="clipPath23"><path
         d="M 0,60 H 155 V 0 H 0 Z"
         transform="translate(-85.575205,-37.000001)"
         id="path23" /></clipPath><clipPath
       clipPathUnits="userSpaceOnUse"
       id="clipPath25"><path
         d="M 0,60 H 155 V 0 H 0 Z"
         id="path25" /></clipPath><clipPath
       clipPathUnits="userSpaceOnUse"
       id="clipPath27"><path
         d="M 0,60 H 155 V 0 H 0 Z"
         transform="translate(-30.717301,-30.575901)"
         id="path27" /></clipPath><clipPath
       clipPathUnits="userSpaceOnUse"
       id="clipPath29"><path
         d="M 0,60 H 155 V 0 H 0 Z"
         transform="translate(-41.488201,-32.500101)"
         id="path29" /></clipPath><clipPath
       clipPathUnits="userSpaceOnUse"
       id="clipPath31"><path
         d="M 0,60 H 155 V 0 H 0 Z"
         transform="translate(-20.0701,-40.722901)"
         id="path31" /></clipPath><clipPath
       clipPathUnits="userSpaceOnUse"
       id="clipPath33"><path
         d="M 0,60 H 155 V 0 H 0 Z"
         transform="translate(-30.795901,-29.999101)"
         id="path33" /></clipPath><linearGradient
       inkscape:collect="always"
       xlink:href="#swatch41"
       id="linearGradient41"
       x1="92.133889"
       y1="25.858658"
       x2="177.03866"
       y2="25.858658"
       gradientUnits="userSpaceOnUse" /></defs><g
     id="layer-MC0"
     inkscape:groupmode="layer"
     inkscape:label="artwork"><g
       opacity="0"
       id="g2"
       clip-path="url(#clipPath3)"
       style="display:inline;opacity:0;mix-blend-mode:normal"><path
         d="M 155,0 H 0 v 60 h 155 z"
         style="display:inline;mix-blend-mode:normal;fill:#ffffff;fill-opacity:1;fill-rule:nonzero;stroke:none"
         transform="matrix(1.3333333,0,0,-1.3333333,0,80)"
         clip-path="url(#clipPath1)"
         id="path2" /></g><path
       id="path4"
       d="m 0,0 h -125 c -2.75,0 -5,2.25 -5,5 v 30 c 0,2.75 2.25,5 5,5 H 0 c 2.75,0 5,-2.25 5,-5 V 5 C 5,2.25 2.75,0 0,0"
       style="display:inline;fill:#000000;fill-opacity:1;fill-rule:nonzero;stroke:none"
       transform="matrix(1.3333333,0,0,-1.3333333,186.6668,66.666533)"
       clip-path="url(#clipPath5)"
       sodipodi:insensitive="true" /><path
       id="path6"
       d="m 0,0 h -125 c -2.75,0 -5,-2.25 -5,-5 v -30 c 0,-2.75 2.25,-5 5,-5 H 0 c 2.75,0 5,2.25 5,5 V -5 C 5,-2.25 2.75,0 0,0 m 0,-0.8 c 2.316,0 4.2,-1.884 4.2,-4.2 v -30 c 0,-2.316 -1.884,-4.2 -4.2,-4.2 h -125 c -2.316,0 -4.2,1.884 -4.2,4.2 v 30 c 0,2.316 1.884,4.2 4.2,4.2 z"
       style="display:inline;fill:#a6a6a6;fill-opacity:1;fill-rule:nonzero;stroke:none"
       transform="matrix(1.3333333,0,0,-1.3333333,186.6668,13.333467)"
       clip-path="url(#clipPath7)"
       sodipodi:insensitive="true" /><path
       id="path8"
       d="m 0,0 c 0,-0.838 -0.248,-1.505 -0.745,-2.003 -0.565,-0.592 -1.3,-0.888 -2.204,-0.888 -0.867,0 -1.603,0.3 -2.208,0.901 -0.607,0.6 -0.909,1.345 -0.909,2.233 0,0.889 0.302,1.633 0.909,2.234 0.605,0.6 1.341,0.901 2.208,0.901 0.429,0 0.841,-0.084 1.231,-0.252 0.391,-0.168 0.704,-0.391 0.939,-0.67 L -1.307,1.928 C -1.704,2.402 -2.251,2.64 -2.949,2.64 -3.581,2.64 -4.127,2.418 -4.588,1.974 -5.049,1.529 -5.279,0.953 -5.279,0.243 c 0,-0.709 0.23,-1.286 0.691,-1.73 0.461,-0.445 1.007,-0.666 1.639,-0.666 0.67,0 1.228,0.223 1.676,0.67 0.29,0.291 0.457,0.695 0.502,1.215 h -2.178 v 0.721 h 2.907 C -0.014,0.296 0,0.145 0,0"
       style="display:inline;fill:#ffffff;fill-opacity:1;fill-rule:nonzero;stroke:#ffffff;stroke-width:0.2;stroke-linecap:butt;stroke-linejoin:miter;stroke-miterlimit:10;stroke-dasharray:none;stroke-opacity:1"
       transform="matrix(1.3333333,0,0,-1.3333333,76.558,26.990933)"
       clip-path="url(#clipPath9)" /><path
       id="path10"
       d="m 0,0 h -2.732 v -1.902 h 2.464 V -2.623 H -2.732 V -4.525 H 0 v -0.738 h -3.503 v 6 l 3.503,0 z"
       style="fill:#ffffff;fill-opacity:1;fill-rule:nonzero;stroke:#f9f9f9;stroke-width:0.2;stroke-linecap:butt;stroke-linejoin:miter;stroke-miterlimit:10;stroke-dasharray:none;stroke-opacity:1"
       transform="matrix(1.3333333,0,0,-1.3333333,82.703733,23.649733)"
       clip-path="url(#clipPath11)" /><path
       id="path12"
       d="M 0,0 H -0.771 V 5.263 H -2.447 V 6 H 1.676 V 5.263 H 0 Z"
       style="display:inline;fill:#ffffff;fill-opacity:1;fill-rule:nonzero;stroke:#ffffff;stroke-width:0.2;stroke-linecap:butt;stroke-linejoin:miter;stroke-miterlimit:10;stroke-dasharray:none;stroke-opacity:1"
       transform="matrix(1.3333333,0,0,-1.3333333,87.0384,30.666667)"
       clip-path="url(#clipPath13)" /><path
       id="path14"
       d="m 69.938,43 h 0.771 v -6 h -0.771 z"
       style="display:inline;fill:#ffffff;fill-opacity:1;fill-rule:nonzero;stroke:#ffffff;stroke-width:0.2;stroke-linecap:butt;stroke-linejoin:miter;stroke-miterlimit:10;stroke-dasharray:none;stroke-opacity:1"
       transform="matrix(1.3333333,0,0,-1.3333333,0,80)"
       clip-path="url(#clipPath15)" /><path
       id="path16"
       d="M 0,0 H -0.771 V 5.263 H -2.447 V 6 H 1.676 V 5.263 H 0 Z"
       style="display:inline;fill:#ffffff;fill-opacity:1;fill-rule:nonzero;stroke:#ffffff;stroke-width:0.2;stroke-linecap:butt;stroke-linejoin:miter;stroke-miterlimit:10;stroke-dasharray:none;stroke-opacity:1"
       transform="matrix(1.3333333,0,0,-1.3333333,98.837867,30.666667)"
       clip-path="url(#clipPath17)" /><path
       id="path18"
       d="M 0,0 C 0.444,-0.45 0.987,-0.674 1.63,-0.674 2.273,-0.674 2.816,-0.45 3.26,0 3.704,0.45 3.927,1.024 3.927,1.722 3.927,2.42 3.704,2.995 3.26,3.444 2.816,3.894 2.273,4.119 1.63,4.119 0.987,4.119 0.444,3.894 0,3.444 -0.443,2.995 -0.666,2.42 -0.666,1.722 -0.666,1.024 -0.443,0.45 0,0 m 3.83,-0.502 c -0.59,-0.607 -1.323,-0.91 -2.2,-0.91 -0.877,0 -1.61,0.303 -2.199,0.91 -0.59,0.606 -0.884,1.347 -0.884,2.224 0,0.877 0.294,1.619 0.884,2.225 0.589,0.606 1.322,0.91 2.199,0.91 0.872,0 1.603,-0.305 2.196,-0.914 C 4.418,3.334 4.714,2.594 4.714,1.722 4.714,0.845 4.419,0.104 3.83,-0.502"
       style="display:inline;fill:#ffffff;fill-opacity:1;fill-rule:nonzero;stroke:none"
       transform="matrix(1.3333333,0,0,-1.3333333,106.3724,28.962933)"
       clip-path="url(#clipPath19)" /><path
       id="path20"
       d="M 0,0 C 0.444,-0.45 0.987,-0.674 1.63,-0.674 2.273,-0.674 2.816,-0.45 3.26,0 3.704,0.45 3.927,1.024 3.927,1.722 3.927,2.42 3.704,2.995 3.26,3.444 2.816,3.894 2.273,4.119 1.63,4.119 0.987,4.119 0.444,3.894 0,3.444 -0.443,2.995 -0.666,2.42 -0.666,1.722 -0.666,1.024 -0.443,0.45 0,0 Z m 3.83,-0.502 c -0.59,-0.607 -1.323,-0.91 -2.2,-0.91 -0.877,0 -1.61,0.303 -2.199,0.91 -0.59,0.606 -0.884,1.347 -0.884,2.224 0,0.877 0.294,1.619 0.884,2.225 0.589,0.606 1.322,0.91 2.199,0.91 0.872,0 1.603,-0.305 2.196,-0.914 C 4.418,3.334 4.714,2.594 4.714,1.722 4.714,0.845 4.419,0.104 3.83,-0.502 Z"
       style="display:inline;fill:none;stroke:#ffffff;stroke-width:0.2;stroke-linecap:butt;stroke-linejoin:miter;stroke-miterlimit:10;stroke-dasharray:none;stroke-opacity:1"
       transform="matrix(1.3333333,0,0,-1.3333333,106.3724,28.962933)"
       clip-path="url(#clipPath21)" /><path
       id="path22"
       d="M 0,0 V 6 H 0.938 L 3.854,1.333 H 3.888 L 3.854,2.489 V 6 H 4.626 V 0 H 3.821 L 0.77,4.894 H 0.737 L 0.77,3.737 V 0 Z"
       style="display:inline;fill:#ffffff;fill-opacity:1;fill-rule:nonzero;stroke:#ffffff;stroke-width:0.2;stroke-linecap:butt;stroke-linejoin:miter;stroke-miterlimit:10;stroke-dasharray:none;stroke-opacity:1"
       transform="matrix(1.3333333,0,0,-1.3333333,114.10027,30.666667)"
       clip-path="url(#clipPath23)" /><path
       d="m 67.623756,54.007702 v -2.144531 l 7.078125,-9.996094 q 0.433594,-0.597656 0.925782,-1.195313 0.492187,-0.609375 1.007812,-1.207031 -0.832031,0.03516 -1.675781,0.04687 -0.832031,0 -1.664063,0 H 67.5886 v -2.964844 h 13.277344 v 2.15625 l -6.949219,9.820313 q -0.457031,0.644531 -0.984375,1.289062 -0.527344,0.644532 -1.078125,1.289063 0.890625,-0.04687 1.769531,-0.04687 0.878907,-0.01172 1.769532,-0.01172 H 80.9011 v 2.964844 z m 19.746094,0.257812 q -1.875,0 -3.117187,-0.984375 -1.242188,-0.996093 -1.242188,-2.941406 0,-1.464844 0.703125,-2.296875 0.703125,-0.832031 1.828125,-1.21875 1.125,-0.386719 2.414063,-0.503906 1.6875,-0.164063 2.425781,-0.339844 0.75,-0.1875 0.75,-0.832031 v -0.05859 q 0,-0.832031 -0.539063,-1.289062 -0.527343,-0.457032 -1.511718,-0.457032 -1.019532,0 -1.640625,0.445313 -0.621094,0.433594 -0.832032,1.066406 l -3.222656,-0.539062 q 0.503906,-1.699219 2.003906,-2.636719 1.511719,-0.9375 3.703125,-0.9375 1.40625,0 2.671875,0.445312 1.277344,0.445313 2.074219,1.429688 0.808594,0.972656 0.808594,2.566406 v 8.824219 h -3.328125 v -1.816406 h -0.117188 q -0.480468,0.914062 -1.429687,1.5 -0.949219,0.574218 -2.402344,0.574218 z m 0.996094,-2.472656 q 1.230469,0 2.003906,-0.714844 0.785156,-0.714843 0.785156,-1.757812 v -1.417969 q -0.210937,0.152344 -0.691406,0.269531 -0.46875,0.105469 -0.996094,0.199219 -0.527343,0.08203 -0.914062,0.128906 -0.972656,0.140625 -1.570313,0.550782 -0.597656,0.410156 -0.597656,1.195312 0,0.761719 0.550781,1.160156 0.5625,0.386719 1.429688,0.386719 z m 9.28125,7.113281 v -18 h 3.457036 v 2.203125 h 0.16406 q 0.23437,-0.515625 0.67969,-1.066406 0.45703,-0.550781 1.19531,-0.925781 0.75,-0.375 1.86328,-0.375 1.45312,0 2.66016,0.75 1.20703,0.75 1.92187,2.25 0.72656,1.5 0.72656,3.738281 0,2.179688 -0.70312,3.691406 -0.70313,1.5 -1.91016,2.285157 -1.20703,0.773437 -2.71875,0.773437 -1.0664,0 -1.80469,-0.363281 -0.73828,-0.363281 -1.20703,-0.890625 -0.45703,-0.539063 -0.70312,-1.066406 h -0.10547 v 6.996093 z m 6.257816,-7.5 q 1.37109,0 2.08593,-1.101562 0.72657,-1.101563 0.72657,-2.835938 0,-1.722656 -0.71485,-2.8125 -0.71484,-1.101562 -2.09765,-1.101562 -1.35938,0 -2.09766,1.066406 -0.72656,1.066406 -0.72656,2.847656 0,1.78125 0.73828,2.859375 0.73828,1.078125 2.08594,1.078125 z m 21.03515,2.859375 q -3.15234,0 -5.03906,-1.441406 -1.875,-1.453125 -1.94531,-4.230469 h 3.48047 q 0.0937,1.324219 1.05468,1.992188 0.97266,0.65625 2.41407,0.65625 1.42968,0 2.29687,-0.609375 0.87891,-0.621094 0.87891,-1.617188 0,-0.902343 -0.79688,-1.382812 -0.78515,-0.480469 -2.21484,-0.832031 l -1.92188,-0.480469 q -2.21484,-0.539063 -3.46875,-1.6875 -1.2539,-1.160156 -1.2539,-3.058594 0,-1.582031 0.84375,-2.765625 0.85547,-1.183594 2.33203,-1.839844 1.48828,-0.65625 3.38672,-0.65625 1.93359,0 3.375,0.667969 1.4414,0.65625 2.25,1.839844 0.80859,1.171875 0.83203,2.707031 h -3.45703 q -0.0937,-1.054687 -0.90235,-1.628906 -0.79687,-0.574219 -2.13281,-0.574219 -1.37109,0 -2.12109,0.574219 -0.73828,0.5625 -0.73828,1.441406 0,0.972656 0.83203,1.453125 0.84375,0.480469 1.95703,0.75 l 1.58203,0.386719 q 1.46484,0.339844 2.64844,0.984375 1.18359,0.632812 1.875,1.652344 0.6914,1.007812 0.6914,2.472656 0,2.378906 -1.78125,3.808594 -1.76953,1.417968 -4.95703,1.417968 z m 15.73828,-13.359375 v 2.683594 h -2.44921 v 6.585938 q 0,1.21875 1.19531,1.21875 0.19922,0 0.55078,-0.04687 0.36328,-0.05859 0.5625,-0.105469 l 0.50391,2.636719 q -0.58594,0.175781 -1.17188,0.246093 -0.57422,0.07031 -1.10156,0.07031 -1.96875,0 -3.01172,-0.949219 -1.04297,-0.960937 -1.04297,-2.765625 v -6.890625 h -1.80469 v -2.683594 h 1.80469 v -3.117187 h 3.51563 v 3.117187 z m 7.91016,13.359375 q -1.96875,0 -3.41016,-0.84375 -1.4414,-0.855468 -2.22656,-2.367187 -0.77344,-1.523438 -0.77344,-3.539063 0,-2.027343 0.77344,-3.550781 0.78516,-1.523437 2.22656,-2.367187 1.44141,-0.855469 3.41016,-0.855469 1.96875,0 3.41016,0.855469 1.4414,0.84375 2.21484,2.367187 0.78516,1.523438 0.78516,3.550781 0,2.015625 -0.78516,3.539063 -0.77344,1.511719 -2.21484,2.367187 -1.44141,0.84375 -3.41016,0.84375 z m 0,-2.765625 q 1.40625,0 2.12109,-1.136718 0.71485,-1.136719 0.71485,-2.859375 0,-1.734375 -0.71485,-2.859375 -0.71484,-1.136719 -2.12109,-1.136719 -1.40625,0 -2.12109,1.136719 -0.70313,1.125 -0.70313,2.859375 0,1.722656 0.70313,2.859375 0.71484,1.136718 2.12109,1.136718 z m 8.85938,2.507813 V 40.906139 h 3.39843 v 2.285157 h 0.14063 q 0.36328,-1.207032 1.20703,-1.828125 0.85547,-0.632813 1.95703,-0.632813 0.59766,0 1.13672,0.117188 v 3.140625 q -0.23438,-0.07031 -0.69141,-0.117188 -0.44531,-0.05859 -0.83203,-0.05859 -1.21875,0 -2.01562,0.761719 -0.78516,0.761719 -0.78516,1.980469 v 7.453125 z m 15.10546,0.257812 q -2.0039,0 -3.45703,-0.820312 -1.45312,-0.820313 -2.23828,-2.332031 -0.77344,-1.511719 -0.77344,-3.585938 0,-2.027344 0.77344,-3.550781 0.78516,-1.523438 2.19141,-2.378906 1.41797,-0.855469 3.32812,-0.855469 1.71094,0 3.10547,0.726562 1.39453,0.726563 2.21485,2.203125 0.83203,1.476563 0.83203,3.714844 v 0.984375 h -8.96485 q 0.0586,1.605469 0.89063,2.425781 0.83203,0.820313 2.15625,0.820313 0.92578,0 1.58203,-0.386719 0.66797,-0.398437 0.94922,-1.160156 l 3.1875,0.597656 q -0.48047,1.628906 -1.99219,2.613281 -1.5,0.984375 -3.78516,0.984375 z m -2.96484,-8.097656 h 5.55469 q -0.12891,-1.277344 -0.82031,-2.027344 -0.69141,-0.75 -1.91016,-0.75 -1.26563,0 -1.99219,0.785157 -0.72656,0.773437 -0.83203,1.992187 z"
       id="text37"
       style="font-weight:bold;font-size:24px;font-family:Inter;-inkscape-font-specification:'Inter, Bold';fill:#ffffff;stroke-width:1.7342;paint-order:fill markers stroke"
       transform="scale(1.0069154,0.99313209)"
       aria-label="Zap Store" /><image
       width="40"
       height="40"
       preserveAspectRatio="none"
       style="image-rendering:optimizeQuality"
       xlink:href="images/image1.png"
       id="image1"
       x="21.385601"
       y="20.000002" /></g></svg>
